<!--?xml version="1.0" encoding="utf-8"?-->
<!-- Generator: Adobe Illustrator 18.1.1, SVG Export Plug-In . SVG Version: 6.00 Build 0)  -->

<svg version="1.1" id="_x31_0" xmlns="http://www.w3.org/2000/svg" xmlns:xlink="http://www.w3.org/1999/xlink" x="0px" y="0px" viewBox="0 0 512 512" style="width: 256px; height: 256px; opacity: 1;" xml:space="preserve">
<style type="text/css">
	.st0{fill:#374149;}
</style>
<g>
	<path class="st0" d="M331.18,378.813v4.449c-18.946-0.042-37.352-0.187-55.207-0.328c-95.25-0.774-171.914-1.375-222.074,14.606
		c-0.031-0.016-0.062-0.031-0.098-0.043l-0.031,0.082c-21.274,6.797-37.801,16.558-48.89,30.602l-4.493,5.691l-0.297,0.355
		l0.008,0.004L0,434.359l6.473,4.489c2.664,1.847,67.855,45.25,293.722,45.25h7.398v-52.718h23.586v4.129l-0.004,0.027h0.004v0.16
		h59.812v-56.882H331.18z M22.68,430.726c9.152-8.378,21.691-14.683,37.094-19.422c1.09,0.722,2.214,1.481,3.382,2.27
		c8.629,5.832,19.367,13.086,33.754,16.293c7.734,1.722,16.206,0.793,25.175-0.187c8.684-0.954,17.665-1.942,26.778-0.649
		c6.195,0.879,12.797,3.691,19.782,6.672c8.785,3.746,18.738,7.992,29.629,8.926c8.465,0.726,16.949-1.203,25.938-3.246
		c8.32-1.891,16.922-3.848,25.41-3.477c6.805,0.297,14.012,2.648,21.645,5.137c6.934,2.262,14.051,4.574,21.527,5.613v20.63
		c-156.59-0.688-232.511-22.985-262.191-35.043C27.516,432.969,24.894,431.786,22.68,430.726z M292.793,416.582v19.609l-0.023,3.086
		c-6.289-1.02-12.539-3.043-18.633-5.027c-7.89-2.574-16.043-5.234-24.114-5.586c-9.73-0.426-18.949,1.672-27.863,3.699
		c-8.266,1.879-16.07,3.656-23.094,3.051c-9.418-0.809-18.25-4.574-26.793-8.219c-7.562-3.226-14.711-6.274-22.114-7.32
		c-10.262-1.454-20.262-0.356-29.086,0.61c-8.184,0.898-15.914,1.746-22.153,0.355c-9.308-2.074-16.859-6.106-23.57-10.344
		c-1.222-0.809-2.468-1.617-3.613-2.43c48.695-11.582,120.598-11.015,204.113-10.336c17.891,0.145,36.325,0.289,55.329,0.336v18.516
		H292.793z" style="fill: rgb(240, 240, 240);"></path>
	<path class="st0" d="M490.278,378.813h-87.879v56.374v0.348l0,0v0.16h87.879c11.976,0,21.722-9.746,21.722-21.722v-13.438
		C512,388.558,502.254,378.813,490.278,378.813z" style="fill: rgb(240, 240, 240);"></path>
	<path class="st0" d="M473.793,27.902H38.207C17.141,27.902,0,45.043,0,66.114v226.558c0,21.07,17.141,38.211,38.207,38.211h435.586
		c21.066,0,38.207-17.141,38.207-38.211V66.114C512,45.043,494.859,27.902,473.793,27.902z M22.926,66.114
		c0-8.43,6.859-15.286,15.282-15.286h435.586c8.422,0,15.282,6.856,15.282,15.286v226.558c0,8.43-6.859,15.285-15.282,15.285H38.207
		c-8.422,0-15.282-6.855-15.282-15.285V66.114z" style="fill: rgb(240, 240, 240);"></path>
	<path class="st0" d="M69.586,180.82c2.074,1.176,2.074,4.203,0,5.438l-14.679,8.473l-6.695,3.778
		c0.023,0.015,0.046,0.031,0.07,0.046l-0.157,0.09c28.578,18.714,79.012,44.27,141.496,44.27c64.446,0,125.641-27.18,160.329-45.954
		c5.378,7.008,12.105,14.066,20.511,19.782c27.066,18.102,60.633,15.41,60.633,15.41s-10.199-32.055-37.21-50.211
		c-0.938-0.625-1.899-1.211-2.856-1.801c-0.39-0.282-0.774-0.504-1.172-0.821c1.379-0.769,2.707-1.598,4.028-2.531
		c24.89-16.679,35.48-45.195,36.996-49.582c0.109-0.286,0.183-0.469,0.199-0.477h-0.039c0.015-0.046,0.054-0.156,0.054-0.156
		s-33.566-2.688-60.633,15.469c-8.406,5.66-15.133,12.718-20.511,19.781c-34.688-18.828-95.883-45.953-160.329-45.953
		c-60.144,0-109.046,23.652-138.125,42.098c-3.648,2.285-7.008,4.488-9.961,6.516l0.066,0.038c-0.047,0.031-0.102,0.066-0.149,0.102
		L69.586,180.82z M99.062,158.91c0-7.34,5.942-13.226,13.282-13.226c7.285,0,13.226,5.886,13.226,13.226
		s-5.942,13.226-13.226,13.226C105.004,172.137,99.062,166.25,99.062,158.91z M155.383,205.817
		c5.828-4.598,9.582-14.965,9.582-26.454c0-11.488-3.754-21.851-9.582-26.39c-1.684-1.348-1.962-3.813-0.618-5.492
		c1.289-1.738,3.754-2.02,5.492-0.676c7.734,6.054,12.555,18.55,12.555,32.558c0,14.012-4.821,26.508-12.555,32.618
		c-0.73,0.558-1.57,0.839-2.41,0.839c-1.176,0-2.298-0.503-3.082-1.515C153.422,209.625,153.699,207.16,155.383,205.817z" style="fill: rgb(240, 240, 240);"></path>
	<path class="st0" d="M462.34,220.707h2.019c4.77,0,8.668-3.898,8.668-8.664v-65.301c0-4.766-3.898-8.664-8.668-8.664h-2.019
		c-4.766,0-8.668,3.898-8.668,8.664v65.301C453.672,216.809,457.574,220.707,462.34,220.707z" style="fill: rgb(240, 240, 240);"></path>
</g>
</svg>
