<?xml version="1.0" encoding="UTF-8" standalone="no"?><!-- Generator: Gravit.io --><svg xmlns="http://www.w3.org/2000/svg" xmlns:xlink="http://www.w3.org/1999/xlink" style="isolation:isolate" viewBox="0 0 1000 1000" width="1000pt" height="1000pt"><defs><clipPath id="_clipPath_UDWrX9q0sIYxQP5hoPZTBTLHGMw0KbuT"><rect width="1000" height="1000"/></clipPath></defs><g clip-path="url(#_clipPath_UDWrX9q0sIYxQP5hoPZTBTLHGMw0KbuT)"><path d=" M 814.472 128.324 C 795.539 137.338 778.543 150.036 764.62 165.457 C 756.684 125.99 729.657 95.214 687.356 85.532 L 616.166 70.044 L 627.99 309.817 C 609.421 316.055 592.268 326.11 577.587 339.616 C 561.999 330.815 544.706 325.017 526.76 322.663 C 472.822 315.59 420.366 340.279 391.307 384.98 C 332.728 367.918 276.554 377.899 234.309 412.399 C 190.93 447.86 168.059 509.207 174.991 579.404 C 100.405 604.418 57.92 668.437 49.312 734.075 C 35.686 837.986 109.084 933.541 212.994 947.167 C 257.216 952.967 301.245 943.31 338.623 919.77 C 363.392 938.55 392.58 950.547 423.812 954.643 C 473.189 961.118 520.148 949.122 556.029 920.847 C 592.246 892.314 615.889 848.92 624.813 794.72 C 656.96 791.069 687.356 777.708 712.057 756.238 C 741.435 730.64 760.403 695.206 765.474 656.537 C 769.778 623.718 764.649 589.763 751.231 560.57 C 785.601 536.132 805.835 502.578 811.31 460.835 C 815.145 431.586 809.586 403.222 797.057 378.786 C 814.407 371.076 837.925 358.628 862.301 339.637 C 890.055 317.961 913.307 292.166 931.443 263.077 C 954.064 226.71 971.054 165.6 977.282 118.107 L 892.719 113.068 C 865.9 111.468 838.791 116.687 814.472 128.324 Z  M 700.768 546.994 C 720.22 579.398 731.34 609.197 725.814 651.336 C 718.025 710.727 665.435 761.823 590.999 758.012 C 586.381 826.291 562.569 864.822 531.299 889.466 C 503.968 910.995 467.583 920.04 429.013 914.982 C 400.557 911.251 369.584 899.019 340.445 872.808 C 292.445 907.36 257.261 912.63 218.195 907.507 C 136.197 896.754 78.22 821.274 88.973 739.277 C 98.166 669.177 147.971 623.162 216.698 605.145 C 203.36 527.653 223.777 474.255 260.022 443.204 C 294.011 413.975 345.144 407.065 409.163 431.093 C 431.187 378.511 478.911 356.832 521.744 362.449 C 538.798 364.685 559.096 369.869 583.343 388.782 C 612.717 349.367 651.578 339.133 685.587 343.593 C 740.219 350.757 778.9 401.114 771.735 455.746 C 766.942 491.527 750.659 521.867 700.768 546.994 Z  M 898.024 241.045 C 882.641 266.057 862.785 288.263 838.944 307.023 C 814.08 326.656 789.79 339.608 774.441 346.672 C 753.12 323.907 724.029 308.09 690.715 303.721 C 682.386 302.629 674.052 302.343 665.839 302.678 L 658.619 120.089 L 678.823 124.453 C 707.32 131.72 736.627 152.81 731.036 195.445 L 724.183 247.697 L 745.005 250.428 L 779.805 201.941 C 803.985 168.299 848.981 150.499 890.321 152.895 L 931.25 155.337 C 924.921 186.68 913.783 215.477 898.024 241.045 Z " fill="rgb(240,240,240)"/></g></svg>
